<svg xmlns="http://www.w3.org/2000/svg" viewBox="0 0 520 180"><defs><linearGradient id="sky" y2="1"><stop stop-color="#150b21"/><stop offset=".65" stop-color="#6d3249"/><stop offset="1" stop-color="#d37b53"/></linearGradient></defs><rect width="520" height="180" fill="url(#sky)"/><circle cx="412" cy="43" r="23" fill="#b76aa8"/><path d="M0 125l85-55 65 35 90-72 120 82 95-54 65 49v70H0z" fill="#35273a"/><path d="M0 142q80-12 160 0t180-3 180 2v39H0z" fill="#4f393e"/><g fill="#8f574a"><path d="M68 139l18-54 17 54zM114 139l11-37 12 37zM445 140l12-55 14 55z"/></g><g fill="#f09a5b"><circle cx="214" cy="121" r="5"/><circle cx="228" cy="116" r="4"/><circle cx="243" cy="124" r="5"/></g></svg>